<?xml version="1.0" ?><svg data-name="Livello 1" id="Livello_1" viewBox="0 0 128 128" xmlns="http://www.w3.org/2000/svg"><title/><path d="M125.42,1.53A6.9,6.9,0,0,0,119.59.16L42.75,17A7,7,0,0,0,37.36,23a3,3,0,0,0-.06.6V91.39a21.64,21.64,0,1,0,6,15c0-.26,0-.51,0-.77V60L122,42.83v30a21.52,21.52,0,1,0,6,14.9V6.93A6.89,6.89,0,0,0,125.42,1.53ZM21.66,122a15.65,15.65,0,1,1,15.66-15.65A15.67,15.67,0,0,1,21.66,122Zm84.93-18.78A15.53,15.53,0,1,1,122,87.69,15.49,15.49,0,0,1,106.58,103.22ZM43.3,53.9V23.74a.93.93,0,0,1,.73-.91L120.87,6l.21,0a.93.93,0,0,1,.92.93V36.69Z"/></svg>