<?xml version="1.0" encoding="iso-8859-1"?>
<!-- Uploaded to: SVG Repo, www.svgrepo.com, Transformed by: SVG Repo Tools -->
<svg fill="#000000" height="800px" width="800px" version="1.1" id="Capa_1" xmlns="http://www.w3.org/2000/svg" xmlns:xlink="http://www.w3.org/1999/xlink" 
	 viewBox="0 0 230.443 230.443" xml:space="preserve">
<g>
	<path d="M213.004,152.737c3.872-25.063,15.222-113.644,15.222-113.644c1.557-12.252-7.796-19.078-17.05-19.078
		c-7.658,0-15.248,4.674-16.536,14.813l-7.605,49.004c-0.351,2.611-2.674,4.437-5.006,4.437c-0.985,0-1.972-0.325-2.813-1.054
		c-3.65-3.161-8.579-4.546-13.33-4.546c-4.342,0-8.535,1.155-11.47,3.169c-0.594,0.406-1.268,0.587-1.956,0.587
		c-1.389,0-2.835-0.735-3.794-1.828c-4.703-5.356-10.073-7.321-15.123-7.322c-4.773,0-9.26,1.756-12.628,4.063
		c-0.657,0.451-1.407,0.652-2.113,0.652c-2.457,0-4.905-2.436-4.905-5.214V16.839c0-11.226-8.581-16.839-17-16.839
		c-8.419,0-17,5.613-17,16.839V141c0,5.952-4.692,10.24-10.021,10.24c-1.68,0-3.302-0.426-4.929-1.359
		c-11.922-6.844-25.019-12.607-38.792-18.001c-2.568-1.005-5.026-1.459-7.357-1.46c-15.773-0.002-24.641,20.784-7.193,32.014
		c20.026,12.889,45.424,19.942,55.299,34.52c6.084,8.98,14.98,24.856,18.393,31.119c0.87,1.599,2.548,2.371,4.368,2.371h89.048
		c2.342,0,4.367-1.414,4.859-3.705L187.626,208c0.217-1.008,0.752-1.857,1.504-2.561
		C201.387,193.955,209.25,177.037,213.004,152.737z"/>
</g>
<g>
</g>
<g>
</g>
<g>
</g>
<g>
</g>
<g>
</g>
<g>
</g>
<g>
</g>
<g>
</g>
<g>
</g>
<g>
</g>
<g>
</g>
<g>
</g>
<g>
</g>
<g>
</g>
<g>
</g>
</svg>